<svg width="1353" height="560" viewBox="0 0 1353 560" fill="none" xmlns="http://www.w3.org/2000/svg">
<path d="M1353 560H0V0H1353V560Z" fill="#FBF1C7"/>
<path d="M672.615 424.738C672.615 432.265 555.668 431.637 411.928 431.637C268.189 431.637 154.456 423.609 154.456 416.082C154.456 408.555 267.385 396.513 410.99 396.513C554.73 396.513 672.615 417.211 672.615 424.738Z" fill="#D6CA9F"/>
<path d="M803.495 73.2396L804.968 69.978L806.442 73.2396C807.245 75.2467 808.987 76.8775 811.13 77.7556L814.747 79.01L811.13 80.3899C808.987 81.2681 807.245 82.7734 806.442 84.7805L804.968 88.1676L803.495 84.7805C802.691 82.7734 800.949 81.2681 798.806 80.3899L795.189 79.01L798.806 77.7556C800.949 76.8775 802.691 75.2467 803.495 73.2396Z" fill="#F7F6EB"/>
<path d="M716.688 149.385L718.161 145.998L719.635 149.385C720.439 151.392 722.18 152.897 724.324 153.776L727.941 155.03L724.324 156.41C722.18 157.288 720.439 158.793 719.635 160.801L718.161 164.188L716.688 160.801C715.884 158.793 714.143 157.288 711.999 156.41L708.382 155.03L711.999 153.776C714.143 152.897 715.884 151.392 716.688 149.385Z" fill="#F7F6EB"/>
<path d="M504.763 132.324L506.236 129.063L507.71 132.324C508.514 134.332 510.255 135.962 512.399 136.84L515.882 138.095L512.399 139.475C510.255 140.353 508.514 141.858 507.71 143.865L506.236 147.252L504.763 143.865C503.959 141.858 502.218 140.353 500.074 139.475L496.457 138.095L500.074 136.84C502.218 135.962 503.959 134.332 504.763 132.324Z" fill="#F7F6EB"/>
<path d="M845.558 107.988C840.334 102.594 836.047 96.3215 832.832 89.6729C832.028 88.0421 831.225 86.1604 831.358 84.2787C831.358 82.397 832.564 80.3899 834.44 79.7627C835.377 79.5118 836.449 79.5118 837.387 79.7627C840.334 80.5154 842.611 83.4006 842.477 86.2859C842.611 83.9024 843.013 81.8953 844.219 79.8881C845.424 77.881 848.103 76.3757 850.515 77.2538C852.256 77.881 853.328 79.8881 853.596 81.6444C854.132 84.6551 853.194 87.6658 852.39 90.551C850.515 96.4469 847.434 102.092 845.558 107.988Z" stroke="#3B496C" stroke-width="2.4" stroke-linecap="round" stroke-linejoin="round"/>
<path d="M872.35 162.18C867.26 147.503 864.849 132.073 864.849 116.769C864.983 112.755 865.117 108.615 867.126 105.103C869.001 101.465 872.886 98.5795 877.173 98.9559C879.316 99.2067 881.192 100.085 882.799 101.339C887.756 105.228 889.497 112.504 886.684 118.024C889.095 113.633 891.641 109.995 895.927 107.11C900.214 104.225 906.778 103.723 910.395 107.235C913.342 110.121 913.476 114.637 912.405 118.4C910.529 124.547 905.974 129.565 901.42 134.457C892.444 144.116 881.326 152.521 872.35 162.18Z" stroke="#3B496C" stroke-width="2.4" stroke-linecap="round" stroke-linejoin="round"/>
<path fill-rule="evenodd" clip-rule="evenodd" d="M1212.07 207.968C1214.49 210.853 1213.28 215.997 1211 219.509C1226.41 204.456 1250.39 197.431 1272.09 201.821C1282.14 203.828 1293.12 209.599 1290.98 221.14C1290.04 226.283 1283.21 235.315 1278.79 238.577C1265.26 248.487 1253.87 252.25 1239 254.383C1240.79 254.801 1242.53 255.428 1244.22 256.265C1248.24 258.146 1251.86 261.408 1252.66 265.548C1253.33 269.436 1251.32 273.451 1248.51 276.461C1243.69 281.605 1236.72 284.49 1229.62 285.744C1223.06 286.873 1216.23 286.622 1209.66 286.121C1210.2 286.539 1210.73 286.957 1211.27 287.375C1211.81 287.793 1212.34 288.295 1212.88 288.88C1215.02 290.26 1216.49 292.142 1216.63 294.275C1217.43 296.031 1217.83 297.913 1217.83 299.794C1217.83 305.188 1214.49 310.206 1209.8 313.593C1205.24 316.855 1199.62 318.486 1193.99 319.615C1179.79 322.249 1164.92 321.12 1150.85 317.733C1148.09 316.98 1145.32 316.186 1142.55 315.349C1144.51 316.437 1146.34 317.649 1148.04 318.987C1150.85 321.12 1153.4 323.629 1154.34 326.89C1155.68 331.407 1153.27 336.299 1149.38 339.435C1145.63 342.446 1138.93 345.582 1134.11 346.711C1112.81 351.478 1064.58 347.464 1028.68 338.181C1079.05 284.114 1139.87 238.577 1207.39 204.456C1209.39 205.459 1211 206.714 1212.07 207.968ZM1119.91 306.694C1120.09 306.694 1120.31 306.736 1120.58 306.819C1120.49 306.819 1120.45 306.819 1120.45 306.819C1120.27 306.736 1120.09 306.694 1119.91 306.694Z" fill="#D98784"/>
<path d="M1080.52 247.609C1086.55 243.469 1094.46 240.333 1101.96 241.086C1109.46 241.838 1116.43 249.491 1113.21 255.888C1123.26 242.967 1134.51 230.674 1148.44 221.516C1162.37 212.359 1178.18 203.703 1195.19 202.198C1200.02 201.821 1204.17 202.825 1207.39 204.456C1139.87 238.577 1079.05 284.114 1028.68 338.181C1026.72 337.679 1024.8 337.135 1022.92 336.55C1019.57 335.672 1017.56 332.41 1019.17 329.399C1028.55 312.339 1058.29 262.411 1080.52 247.609Z" fill="#C47A77"/>
<path d="M1268.07 214.742C1180.73 245.1 1100.35 290.511 1020.51 335.546" stroke="#E8C79A" stroke-linecap="round" stroke-linejoin="round"/>
<path d="M1194.66 215.871C1177.24 226.785 1163.58 242.842 1156.08 261.157" stroke="#E8C79A" stroke-linecap="round" stroke-linejoin="round"/>
<path d="M1176.98 252.627C1177.11 251.874 1178.32 251.999 1179.12 252.376C1195.46 258.774 1213.15 262.035 1230.96 261.91" stroke="#E8C79A" stroke-linecap="round" stroke-linejoin="round"/>
<path d="M1120.44 280.601C1142.95 289.257 1167.33 293.647 1191.58 293.522" stroke="#E8C79A" stroke-linecap="round" stroke-linejoin="round"/>
<path d="M1058.29 313.719C1060.03 302.052 1065.65 291.013 1072.89 281.354C1079.99 271.569 1088.7 262.913 1097.4 254.383" stroke="#E8C79A" stroke-linecap="round" stroke-linejoin="round"/>
<path d="M1066.46 309.579C1089.23 319.113 1113.48 325.385 1138.13 328.27" stroke="#E8C79A" stroke-linecap="round" stroke-linejoin="round"/>
<path d="M1208.32 267.806C1211.54 267.053 1216.49 269.813 1215.29 273.325C1214.75 274.956 1213.01 275.834 1211.27 276.21C1209.26 276.587 1206.85 276.461 1205.24 275.207C1201.36 272.447 1204.71 268.558 1208.32 267.806Z" fill="#E0A95D"/>
<path d="M1235.25 240.96C1237.26 240.458 1240.07 242.089 1239.4 244.222C1239.13 245.1 1238.06 245.727 1236.99 245.853C1235.78 246.104 1234.45 246.104 1233.51 245.351C1231.1 243.72 1233.11 241.462 1235.25 240.96Z" fill="#E0A95D"/>
<path d="M1267.67 233.183C1269.54 235.315 1269.27 239.957 1265.79 240.584C1264.32 240.835 1262.84 239.831 1261.77 238.702C1260.57 237.448 1259.76 235.692 1260.17 233.935C1260.84 229.921 1265.52 230.799 1267.67 233.183Z" fill="#E0A95D"/>
<path d="M1232.57 215.369C1234.31 217.251 1234.04 221.516 1230.96 222.018C1229.49 222.269 1228.15 221.391 1227.21 220.387C1226.14 219.133 1225.47 217.502 1225.74 215.997C1226.41 212.359 1230.69 213.111 1232.57 215.369Z" fill="#E0A95D"/>
<path d="M1183.27 306.694C1184.61 308.074 1184.34 311.335 1182.07 311.712C1180.99 311.837 1179.92 311.21 1179.25 310.457C1178.45 309.579 1177.91 308.325 1178.18 307.196C1178.72 304.436 1181.8 305.063 1183.27 306.694Z" fill="#E0A95D"/>
<path d="M1182.6 275.332C1184.61 275.583 1186.76 278.092 1185.28 279.848C1184.75 280.601 1183.54 280.727 1182.47 280.601C1181.13 280.476 1179.92 279.974 1179.25 278.97C1177.65 276.587 1180.33 275.081 1182.6 275.332Z" fill="#E0A95D"/>
<path d="M1206.18 299.418C1207.39 300.923 1206.72 304.185 1204.3 304.185C1203.23 304.31 1202.29 303.558 1201.76 302.679C1201.09 301.676 1200.69 300.421 1201.09 299.292C1202.03 296.658 1204.97 297.662 1206.18 299.418Z" fill="#E0A95D"/>
<path d="M1232.3 404.416L1263.25 417.337C1265.93 418.466 1265.52 422.229 1262.71 422.982L1044.62 473.536C1040.47 474.414 1036.05 473.662 1032.57 471.404L913.744 396.136L1232.3 404.416Z" fill="#D6CA9F"/>
<path d="M1088.56 343.826L1249.98 410.814C1253.74 412.319 1253.2 417.462 1249.18 418.466L1051.46 464.504L878.379 379.703L1088.56 343.826Z" fill="#3B496C"/>
<path d="M1059.63 399.273C1059.63 399.273 1045.83 412.57 1043.15 422.104C1034.98 451.458 1051.46 464.504 1051.46 464.504L878.378 379.703C878.378 379.703 870.207 369.918 870.207 356.872C870.207 337.302 886.684 327.518 886.684 327.518L1059.63 399.273Z" fill="#455680"/>
<path d="M915.084 339.435L930.489 345.707C924.863 350.725 912.539 361.012 912.539 375.94C912.539 387.606 918.299 397.015 920.844 400.652L903.697 392.248C903.697 392.248 895.392 382.463 895.392 369.417C895.392 349.722 915.084 339.435 915.084 339.435Z" fill="white"/>
<path d="M1010.33 377.32L1028.15 384.595C1021.58 390.366 1007.38 402.409 1007.38 419.595C1007.38 433.143 1013.95 444.057 1016.89 448.196L997.067 438.537C997.067 438.537 987.556 427.121 987.556 412.068C987.556 389.362 1010.33 377.32 1010.33 377.32Z" fill="white"/>
<path d="M1232.7 386.226C1232.7 399.273 1245.03 412.319 1245.03 412.319L1047.3 457.981C1047.3 457.981 1039.13 441.673 1042.75 426.118C1046.36 410.437 1059.63 399.273 1059.63 399.273L1245.7 356.997C1245.7 356.997 1232.7 363.395 1232.7 386.226Z" fill="#DCD097"/>
<g style="mix-blend-mode:screen" opacity="0.5">
<g style="mix-blend-mode:screen">
<path d="M1243.42 364.273L1021.72 414.577" stroke="white" stroke-width="1.5"/>
</g>
<g style="mix-blend-mode:screen">
<path d="M1243.42 368.538L1021.72 418.842" stroke="white" stroke-width="1.5"/>
</g>
<g style="mix-blend-mode:screen">
<path d="M1243.42 372.804L1021.72 422.982" stroke="white" stroke-width="1.5"/>
</g>
<g style="mix-blend-mode:screen">
<path d="M1243.42 376.943L1021.72 427.247" stroke="white" stroke-width="1.5"/>
</g>
<g style="mix-blend-mode:screen">
<path d="M1243.42 381.208L1021.72 431.512" stroke="white" stroke-width="1.5"/>
</g>
<g style="mix-blend-mode:screen">
<path d="M1243.42 385.474L1021.72 435.777" stroke="white" stroke-width="1.5"/>
</g>
<g style="mix-blend-mode:screen">
<path d="M1243.42 389.739L1021.72 440.042" stroke="white" stroke-width="1.5"/>
</g>
<g style="mix-blend-mode:screen">
<path d="M1243.42 394.004L1021.72 444.307" stroke="white" stroke-width="1.5"/>
</g>
<g style="mix-blend-mode:screen">
<path d="M1243.42 398.269L1021.72 448.573" stroke="white" stroke-width="1.5"/>
</g>
<g style="mix-blend-mode:screen">
<path d="M1243.42 402.534L1021.72 452.838" stroke="white" stroke-width="1.5"/>
</g>
<g style="mix-blend-mode:screen">
<path d="M1243.42 406.674L1021.72 456.977" stroke="white" stroke-width="1.5"/>
</g>
</g>
<path d="M1088.7 276.085C1089.9 275.709 1091.38 275.834 1092.58 276.461L1242.62 350.725C1247.04 352.858 1246.23 359.005 1241.41 360.134L1057.48 401.907L886.684 327.518L1088.7 276.085Z" fill="#3B496C"/>
<path d="M1154.34 328.772L1168.54 335.797L1028.41 372.302L1013.95 365.151L1154.34 328.772Z" fill="white"/>
<path d="M1185.15 342.446L1198.41 349.596L1058.29 386.728L1043.95 379.703L1185.15 342.446Z" fill="white"/>
<path d="M285.068 211.23L308.511 187.019L347.895 196.051C347.895 196.051 327.533 213.237 313.2 215.495C298.866 217.627 285.068 211.23 285.068 211.23Z" fill="#DCD097"/>
<path d="M64.9712 243.218L92.0312 208.094C92.0312 208.094 264.304 179.367 284.13 178.112C303.823 176.732 307.841 187.27 307.841 187.27L288.819 212.986L64.9712 243.218Z" fill="#DCD097"/>
<g opacity="0.7">
<path d="M89.084 210.979C89.084 210.979 267.251 183.632 278.906 181.875C296.857 179.366 305.564 189.653 305.564 189.653" stroke="#FFFEFA"/>
<path opacity="0.9" d="M87.0745 213.864C87.0745 213.864 265.242 186.517 276.762 184.761C294.847 182.252 303.42 192.538 303.42 192.538" stroke="#FFFEFA"/>
<path opacity="0.8" d="M84.9314 216.749C84.9314 216.749 263.099 189.402 274.753 187.646C292.704 185.137 301.277 195.424 301.277 195.424" stroke="#FFFEFA"/>
<path opacity="0.7" d="M82.9221 219.635C82.9221 219.635 260.955 192.287 272.61 190.531C290.695 188.022 299.268 198.309 299.268 198.309" stroke="#FFFEFA"/>
<path opacity="0.6" d="M80.7786 222.52C80.7786 222.52 258.946 195.173 270.6 193.542C288.551 190.907 297.125 201.194 297.125 201.194" stroke="#FFFEFA"/>
<path opacity="0.5" d="M78.769 225.405C78.769 225.405 256.802 198.058 268.457 196.427C286.542 193.793 295.115 204.079 295.115 204.079" stroke="#FFFEFA"/>
<path opacity="0.4" d="M76.626 228.29C76.626 228.29 254.793 200.943 266.448 199.312C284.399 196.678 292.972 206.965 292.972 206.965" stroke="#FFFEFA"/>
<path opacity="0.3" d="M74.6162 231.175C74.6162 231.175 252.65 203.828 264.304 202.198C282.389 199.563 290.962 209.85 290.962 209.85" stroke="#FFFEFA"/>
<path opacity="0.2" d="M72.4729 234.061C72.4729 234.061 250.64 206.714 262.295 205.083C280.245 202.448 288.819 212.735 288.819 212.735" stroke="#FFFEFA"/>
</g>
<path d="M339.724 195.549L308.511 187.019C308.511 187.019 304.492 176.481 320.701 165.818C336.777 155.03 489.224 74.7449 489.224 74.7449L533.966 85.6587L339.724 195.549Z" fill="#DCD097"/>
<g opacity="0.7">
<path d="M311.994 187.395C311.994 187.395 311.592 174.349 327.265 165.693C337.446 160.048 493.51 75.1212 493.51 75.1212" stroke="#FFFEFA"/>
<path opacity="0.9" d="M315.477 188.399C315.477 188.399 315.209 175.352 330.882 166.696C340.929 161.051 497.127 76.1248 497.127 76.1248" stroke="#FFFEFA"/>
<path opacity="0.8" d="M319.094 189.402C319.094 189.402 318.692 176.356 334.366 167.7C344.547 162.055 500.611 77.1284 500.611 77.1284" stroke="#FFFEFA"/>
<path opacity="0.7" d="M322.577 190.406C322.577 190.406 322.309 177.359 337.982 168.578C348.029 163.059 504.227 78.1319 504.227 78.1319" stroke="#FFFEFA"/>
<path opacity="0.6" d="M326.194 191.409C326.194 191.409 325.926 178.363 341.599 169.582C351.646 163.937 507.844 79.1355 507.844 79.1355" stroke="#FFFEFA"/>
<path opacity="0.5" d="M329.811 192.413C329.811 192.413 329.409 179.366 345.082 170.585C355.263 164.94 511.327 80.139 511.327 80.139" stroke="#FFFEFA"/>
<path opacity="0.4" d="M333.294 193.416C333.294 193.416 333.026 180.37 348.699 171.589C358.746 165.944 514.944 81.1426 514.944 81.1426" stroke="#FFFEFA"/>
<path opacity="0.3" d="M336.911 194.42C336.911 194.42 336.643 181.374 352.316 172.592C362.363 166.947 518.427 82.1462 518.427 82.1462" stroke="#FFFEFA"/>
<path opacity="0.2" d="M340.528 195.298C340.528 195.298 340.126 182.377 355.799 173.596C365.98 167.951 522.044 83.0242 522.044 83.0242" stroke="#FFFEFA"/>
</g>
<path d="M273.547 201.194L346.824 384.846L160.351 417.964C157.404 418.466 154.322 417.086 152.849 414.577L53.7182 244.975C52.3786 242.591 53.8522 239.706 56.6654 239.204L273.547 201.194Z" fill="#60A9A7"/>
<path d="M537.181 77.7556C539.727 76.5012 542.808 77.8811 543.344 80.5154L581.924 270.44C582.46 273.325 581.12 276.085 578.441 277.465L412.062 362.893L343.876 177.485L537.181 77.7556Z" fill="#60A9A7"/>
<path d="M560.758 268.433L428.54 340.062C427.602 337.93 425.592 336.048 422.913 335.421C421.44 335.044 419.832 335.17 418.493 335.546L367.454 192.037C369.865 191.284 371.74 189.402 372.41 187.019C372.812 185.639 372.678 184.133 372.142 182.879L523.517 104.35C524.321 106.608 526.465 108.49 529.144 109.117C530.617 109.368 532.225 109.368 533.564 108.866L565.581 259.275C563.17 260.028 561.16 261.91 560.491 264.293C560.089 265.673 560.223 267.178 560.758 268.433Z" stroke="#E8E8E8" stroke-width="0.8"/>
<path d="M166.245 396.764C164.102 395.258 161.288 395.007 158.877 395.886L81.582 260.781C82.9216 260.279 84.1273 259.401 85.065 258.272C86.8065 256.139 87.0744 253.505 86.2706 251.247L256.4 221.767C256.802 223.022 257.74 224.276 258.946 225.154C261.089 226.659 263.902 226.91 266.179 226.032L324.318 367.284C322.979 367.786 321.639 368.538 320.701 369.793C319.094 371.8 318.826 374.434 319.63 376.692L168.924 400.151C168.388 398.771 167.451 397.642 166.245 396.764Z" stroke="white"/>
<path d="M343.743 177.61L411.794 363.019C411.794 363.019 410.589 368.915 406.302 373.305C398.8 381.083 385.002 384.595 383.529 384.972C382.323 385.474 369.195 390.993 358.076 389.488C351.78 388.61 346.824 384.846 346.824 384.846L273.547 201.194C273.547 201.194 284.13 207.843 290.962 209.724C300.071 212.359 313.333 207.341 315.209 206.714V206.588C315.298 206.588 315.343 206.588 315.343 206.588C317.218 206.086 330.882 201.947 336.107 194.545C340.126 189.026 343.743 177.61 343.743 177.61Z" fill="#69B8B6"/>
<path d="M286.809 208.219L358.88 389.613C358.612 389.53 358.344 389.488 358.076 389.488C351.78 388.61 346.824 384.846 346.824 384.846L273.547 201.194C273.547 201.194 280.513 205.585 286.809 208.219Z" fill="#76CFCC"/>
<path d="M343.743 177.61L411.795 363.019C411.795 363.019 410.589 368.915 406.302 373.305C405.767 373.891 405.186 374.434 404.561 374.936L337.983 191.66C341.198 185.764 343.743 177.61 343.743 177.61Z" fill="#5A9E9C"/>
<g style="mix-blend-mode:color-dodge" opacity="0.1">
<g style="mix-blend-mode:color-dodge">
<path d="M551.113 118.275L566.519 194.295C546.023 227.788 533.029 265.422 528.876 303.934L499.807 318.862C499.807 281.479 504.227 244.347 513.872 208.219C522.178 176.983 534.636 146.5 551.113 118.275Z" fill="#E6AD5F"/>
</g>
<g style="mix-blend-mode:color-dodge">
<path d="M566.518 194.295L582.192 271.318C582.728 274.078 581.388 276.963 578.709 278.343L528.875 303.934C533.028 265.422 546.022 227.788 566.518 194.295Z" fill="#EBB873"/>
</g>
</g>
<path d="M1011.27 318.486C973.49 342.195 932.365 327.769 922.719 320.744C914.28 314.597 891.373 277.716 909.591 238.828C955.272 140.98 1079.32 138.597 1085.48 138.597L1085.62 138.471C1085.62 138.471 1085.62 138.513 1085.62 138.597C1085.7 138.597 1085.75 138.597 1085.75 138.597L1085.62 138.722C1086.69 144.367 1106.11 259.024 1011.27 318.486Z" fill="#60A9A7"/>
<path d="M1082.27 140.98C1027.61 202.323 978.313 260.028 922.184 320.242" stroke="white" stroke-width="0.6" stroke-linecap="round" stroke-linejoin="round"/>
<path d="M1024.4 150.263C1017.16 170.209 1015.29 191.786 1019.04 212.484" stroke="white" stroke-width="0.6" stroke-linecap="round" stroke-linejoin="round"/>
<path d="M1083.47 169.582C1077.4 172.76 1071.24 175.812 1064.99 178.739C1056.01 182.753 1051.05 185.388 1041.27 186.893" stroke="white" stroke-width="0.6" stroke-linecap="round" stroke-linejoin="round"/>
<path d="M1077.18 209.348C1053.46 219.133 1028.68 226.534 1003.23 231.301" stroke="white" stroke-width="0.6" stroke-linecap="round" stroke-linejoin="round"/>
<path d="M981.26 169.833C974.16 196.051 975.5 225.405 984.475 250.996" stroke="white" stroke-width="0.6" stroke-linecap="round" stroke-linejoin="round"/>
<path d="M1070.08 244.222C1038.46 255.386 1005.77 266.802 971.883 266.426" stroke="white" stroke-width="0.6" stroke-linecap="round" stroke-linejoin="round"/>
<path d="M944.823 194.294C940 223.021 944.823 253.128 958.353 279.221" stroke="white" stroke-width="0.6" stroke-linecap="round" stroke-linejoin="round"/>
<path d="M1047.97 283.863C1012.87 298.54 974.696 309.077 936.517 305.69" stroke="white" stroke-width="0.6" stroke-linecap="round" stroke-linejoin="round"/>
<path d="M912.539 245.476C911.601 267.555 919.103 290.009 933.302 307.572" stroke="white" stroke-width="0.6" stroke-linecap="round" stroke-linejoin="round"/>
<path d="M852.792 175.603C866.724 215.997 840.602 249.24 830.688 255.888C822.115 261.784 777.908 272.322 742.944 245.351C655.066 177.234 686.681 64.9601 688.289 59.3151V59.1897C688.289 59.1897 688.333 59.1897 688.423 59.1897C688.423 59.106 688.423 59.0642 688.423 59.0642V59.1897C694.585 59.9423 817.694 73.8668 852.792 175.603Z" fill="#E39B20"/>
<path d="M689.896 62.9531C737.854 128.937 783.668 189.277 830.019 256.265" stroke="white" stroke-width="0.6" stroke-linecap="round" stroke-linejoin="round"/>
<path d="M683.6 117.522C702.086 129.439 723.654 137.091 746.025 139.475" stroke="white" stroke-width="0.6" stroke-linecap="round" stroke-linejoin="round"/>
<path d="M719.635 69.6016C721.243 75.9575 722.672 82.3553 723.922 88.7948C725.664 97.9523 726.869 103.221 725.798 112.504" stroke="white" stroke-width="0.6" stroke-linecap="round" stroke-linejoin="round"/>
<path d="M758.752 86.2859C762.235 110.246 763.039 134.708 761.029 158.919" stroke="white" stroke-width="0.6" stroke-linecap="round" stroke-linejoin="round"/>
<path d="M691.905 161.804C716.822 175.352 747.365 182.252 776.167 181.123" stroke="white" stroke-width="0.6" stroke-linecap="round" stroke-linejoin="round"/>
<path d="M792.51 102.217C795.323 133.83 798.136 166.32 788.357 196.678" stroke="white" stroke-width="0.6" stroke-linecap="round" stroke-linejoin="round"/>
<path d="M707.043 201.194C735.175 213.488 767.325 217.376 797.868 212.359" stroke="white" stroke-width="0.6" stroke-linecap="round" stroke-linejoin="round"/>
<path d="M827.339 132.952C832.698 168.578 832.966 205.835 819.034 239.329" stroke="white" stroke-width="0.6" stroke-linecap="round" stroke-linejoin="round"/>
<path d="M750.58 244.347C773.086 251.372 798.136 250.745 820.106 242.716" stroke="white" stroke-width="0.6" stroke-linecap="round" stroke-linejoin="round"/>
<path d="M968.935 92.1818C970.945 139.349 950.315 185.388 920.978 223.774C891.506 262.035 853.461 293.773 815.819 325.134" stroke="#3D4868" stroke-width="2.3"/>
<path d="M974.026 66.4655C978.982 69.0998 978.714 78.7591 977.509 83.0243C976.035 88.6693 972.686 93.5617 969.337 98.4541C967.998 95.2761 966.658 92.14 965.318 89.0457C963.443 84.7805 961.568 80.3899 961.969 75.7485C962.371 70.9815 967.864 63.2039 974.026 66.4655Z" fill="#3B4A6A"/>
<path d="M966.257 115.013C967.998 119.529 966.658 120.909 961.3 121.034C954.334 121.411 947.1 119.78 941.072 116.518C936.651 114.135 932.365 110.121 932.9 105.479C933.302 100.712 938.527 97.4506 943.483 97.0743C949.645 96.6979 955.674 99.8341 959.692 104.099C962.64 107.361 964.649 111.124 966.257 115.013Z" fill="#3D4868"/>
<path d="M978.447 126.303C983.135 124.045 988.628 122.791 993.852 123.292C996.665 123.543 999.612 124.296 1001.62 126.052C1003.63 127.934 1004.7 130.945 1003.23 133.328C1002.69 134.332 1001.62 135.21 1000.55 135.962C992.78 140.729 982.733 140.102 973.624 138.597C971.883 138.346 970.007 137.97 968.4 137.217C966.122 136.088 965.319 135.461 967.194 133.704C970.409 130.694 974.428 128.185 978.447 126.303Z" fill="#3D4868"/>
<path d="M900.214 267.931C904.903 270.314 909.055 273.702 911.869 277.967C913.208 280.225 914.28 282.859 913.878 285.493C913.476 288.128 911.467 290.637 908.654 291.013C907.314 291.138 905.974 290.762 904.769 290.386C896.061 287.375 890.703 279.347 886.684 271.443C885.88 269.938 885.077 268.433 884.943 266.677C884.541 264.293 884.541 263.29 887.22 263.666C891.641 264.419 896.195 265.924 900.214 267.931Z" fill="#3D4868"/>
<path d="M917.629 247.985C922.585 249.867 927.14 252.878 930.221 256.892C931.962 259.024 933.302 261.533 933.168 264.168C933.034 266.802 931.293 269.562 928.48 270.189C927.14 270.44 925.8 270.189 924.595 269.938C915.619 267.68 909.323 260.279 904.501 252.878C903.697 251.372 902.759 249.867 902.223 248.236C901.687 245.853 901.553 244.849 904.233 244.975C908.787 245.351 913.476 246.48 917.629 247.985Z" fill="#3D4868"/>
<path d="M902.223 226.409C897.267 224.527 892.578 221.767 889.363 217.753C887.622 215.62 886.282 213.111 886.282 210.477C886.282 207.843 888.157 205.083 890.837 204.456C892.176 204.205 893.516 204.33 894.721 204.581C903.831 206.588 910.127 213.989 915.217 221.265C916.155 222.771 917.093 224.276 917.629 225.907C918.298 228.165 918.298 229.168 915.619 229.043C911.199 228.917 906.376 227.914 902.223 226.409Z" fill="#3D4868"/>
<path d="M933.436 226.534C938.661 227.036 944.019 228.667 948.306 231.552C950.583 233.183 952.592 235.19 953.396 237.824C954.066 240.333 953.128 243.469 950.717 244.724C949.511 245.351 948.172 245.602 946.832 245.602C937.589 245.978 929.283 240.458 922.451 234.813C921.112 233.684 919.772 232.43 918.834 231.05C917.495 228.918 917.093 227.914 919.638 227.412C924.059 226.409 928.881 226.158 933.436 226.534Z" fill="#3D4868"/>
<path d="M955.807 180.997C960.63 178.865 965.988 177.61 971.347 177.987C974.16 178.237 976.973 178.99 979.117 180.872C981.126 182.628 982.064 185.764 980.724 188.022C980.054 189.151 978.983 190.029 977.911 190.657C970.275 195.549 960.094 194.922 950.985 193.416C949.243 193.04 947.368 192.789 945.894 191.911C943.483 190.782 942.679 190.155 944.555 188.399C947.77 185.513 951.789 182.879 955.807 180.997Z" fill="#3D4868"/>
<path d="M880.254 288.504C885.076 290.762 889.363 294.024 892.176 298.163C893.65 300.421 894.722 303.056 894.454 305.69C894.186 308.325 892.042 310.959 889.363 311.335C888.024 311.461 886.684 311.21 885.344 310.833C876.637 307.948 871.011 300.045 866.858 292.393C866.054 290.888 865.25 289.257 864.982 287.626C864.447 285.243 864.581 284.239 867.126 284.615C871.68 285.117 876.235 286.622 880.254 288.504Z" fill="#3D4868"/>
<path d="M941.876 191.033C942.144 193.416 941.072 193.416 938.527 193.04C936.785 192.664 935.178 191.786 933.57 191.033C925.398 186.893 917.227 181.374 914.548 173.094C914.146 171.84 913.878 170.585 914.146 169.331C914.682 166.696 917.495 164.94 920.308 164.689C923.121 164.564 925.8 165.693 928.212 167.073C932.632 169.958 935.981 174.098 938.125 178.614C940 182.503 941.34 186.768 941.876 191.033Z" fill="#3D4868"/>
<path d="M855.471 291.138C855.739 293.647 854.667 293.647 852.122 293.146C850.381 292.769 848.639 292.017 847.032 291.138C838.994 286.999 830.822 281.479 828.009 273.2C827.607 271.945 827.339 270.691 827.607 269.562C828.143 266.928 830.956 265.046 833.77 264.92C836.583 264.669 839.396 265.798 841.673 267.304C846.094 270.064 849.443 274.203 851.72 278.719C853.596 282.608 854.935 286.999 855.471 291.138Z" fill="#3D4868"/>
<path d="M939.063 165.567C934.24 163.686 929.685 160.675 926.47 156.661C924.863 154.528 923.523 151.894 923.657 149.26C923.791 146.625 925.666 143.991 928.346 143.364C929.685 143.113 931.025 143.364 932.365 143.615C941.206 145.873 947.502 153.399 952.191 160.801C953.128 162.306 954.066 163.811 954.468 165.442C955.138 167.826 955.138 168.829 952.459 168.578C948.038 168.327 943.349 167.198 939.063 165.567Z" fill="#3D4868"/>
<path d="M868.197 265.798C864.044 264.168 860.159 261.659 857.346 258.146C856.007 256.265 854.801 254.132 854.935 251.874C855.069 249.491 856.677 247.233 859.088 246.731C860.16 246.48 861.365 246.731 862.437 246.982C870.073 248.863 875.431 255.386 879.45 261.784C880.254 262.913 881.057 264.293 881.459 265.673C881.995 267.68 881.995 268.558 879.718 268.433C875.833 268.182 871.814 267.178 868.197 265.798Z" fill="#3D4868"/>
<path d="M961.836 135.837C965.72 141.984 954.602 142.235 950.315 141.984C946.698 141.733 943.081 141.231 939.732 139.851C936.517 138.471 933.57 136.088 932.498 132.826C931.963 131.195 931.962 129.565 932.632 128.059C933.704 125.676 936.383 124.045 939.196 123.794C942.01 123.418 944.823 124.045 947.502 125.049C953.262 127.181 958.621 130.694 961.836 135.837Z" fill="#3D4868"/>
<path d="M903.161 240.96C907.046 247.233 895.927 247.358 891.641 247.107C888.024 246.856 884.407 246.48 881.058 245.1C877.843 243.72 874.895 241.211 873.824 237.95C873.422 236.444 873.288 234.688 873.958 233.183C875.029 230.799 877.843 229.294 880.522 228.918C883.335 228.541 886.148 229.294 888.827 230.172C894.588 232.305 899.946 235.942 903.161 240.96Z" fill="#3D4868"/>
<path d="M959.156 167.449C951.923 165.066 960.228 158.166 963.711 155.783C966.658 153.776 969.739 151.894 973.088 150.89C976.571 150.012 980.59 150.012 983.537 151.894C985.011 152.772 986.216 154.026 986.752 155.657C987.69 158.041 986.618 160.926 984.743 162.933C982.867 164.815 980.188 166.069 977.643 166.947C971.749 168.829 965.185 169.331 959.156 167.449Z" fill="#3D4868"/>
<path d="M846.094 302.679C845.558 295.529 855.471 300.045 859.222 302.052C862.303 303.809 865.384 305.69 867.661 308.325C869.939 310.959 871.412 314.346 870.742 317.733C870.475 319.364 869.671 320.869 868.465 321.873C866.322 323.629 863.107 323.88 860.428 323.002C857.748 322.124 855.605 320.367 853.73 318.36C849.577 314.095 846.496 308.575 846.094 302.679Z" fill="#3D4868"/>
<path d="M838.19 303.558C839.798 310.583 829.215 307.446 825.196 305.816C821.847 304.436 818.632 302.93 815.953 300.672C813.274 298.289 811.398 295.153 811.666 291.766C811.666 290.135 812.202 288.504 813.408 287.25C815.283 285.243 818.364 284.741 821.177 285.243C823.856 285.744 826.268 287.25 828.411 289.006C833.234 292.769 836.985 297.787 838.19 303.558Z" fill="#3D4868"/>
<path d="M931.293 205.961C932.498 213.111 922.049 209.599 918.165 207.843C914.949 206.463 911.6 204.832 909.055 202.448C906.51 200.065 904.769 196.803 905.036 193.416C905.17 191.786 905.706 190.155 906.912 189.026C908.787 187.019 912.002 186.517 914.682 187.144C917.495 187.771 919.772 189.402 921.915 191.158C926.604 195.047 930.221 200.19 931.293 205.961Z" fill="#3D4868"/>
<path d="M989.565 97.4506C991.977 96.6979 994.924 96.447 996.799 97.9523C999.211 99.7086 999.211 103.096 997.737 105.479C996.263 107.863 993.584 109.368 991.039 110.622C985.145 113.508 978.849 115.64 972.418 117.02C971.481 117.146 970.409 117.396 969.471 117.02C965.319 115.766 974.026 107.486 975.5 105.981C979.384 102.092 984.073 98.9559 989.565 97.4506Z" fill="#3D4868"/>
<path d="M951.655 203.076C956.745 202.574 961.97 202.699 966.792 204.079C971.615 205.585 976.17 208.344 978.849 212.484C980.724 215.244 981.662 219.007 979.92 221.893C978.179 224.903 974.026 226.158 970.275 226.534C959.96 227.538 949.511 224.276 941.474 218.255C938.929 216.373 931.561 210.477 933.57 207.968C934.91 206.337 940.268 205.459 942.278 204.832C945.314 203.996 948.44 203.41 951.655 203.076Z" fill="#3D4868"/>
<path d="M415.277 259.652C464.039 279.598 474.89 326.89 473.416 340.188C472.211 351.854 447.83 396.387 395.317 404.04C263.098 423.358 182.454 310.081 178.435 304.436H178.302C178.302 304.436 178.346 304.394 178.435 304.31C178.346 304.227 178.302 304.185 178.302 304.185H178.435C183.794 299.669 292.704 209.348 415.277 259.652Z" fill="#E39B20"/>
<path d="M182.99 305.816C282.255 317.733 374.286 327.016 473.282 341.066" stroke="white" stroke-width="0.7" stroke-linecap="round" stroke-linejoin="round"/>
<path d="M229.341 353.61C254.927 347.714 278.906 335.797 298.464 319.238" stroke="white" stroke-width="0.7" stroke-linecap="round" stroke-linejoin="round"/>
<path d="M212.462 286.748C219.696 290.26 226.795 294.024 233.761 298.038C243.808 303.683 249.569 306.694 257.338 314.848" stroke="white" stroke-width="0.7" stroke-linecap="round" stroke-linejoin="round"/>
<path d="M258.41 267.429C283.729 283.235 307.172 301.55 328.337 321.998" stroke="white" stroke-width="0.7" stroke-linecap="round" stroke-linejoin="round"/>
<path d="M277.298 381.083C309.315 371.173 339.59 351.478 360.89 326.89" stroke="white" stroke-width="0.7" stroke-linecap="round" stroke-linejoin="round"/>
<path d="M299.67 251.999C331.418 274.329 364.105 297.285 385.002 328.898" stroke="white" stroke-width="0.7" stroke-linecap="round" stroke-linejoin="round"/>
<path d="M326.06 399.398C359.416 385.724 388.084 362.392 407.106 333.288" stroke="white" stroke-width="0.7" stroke-linecap="round" stroke-linejoin="round"/>
<path d="M355.531 247.358C393.04 270.691 428.406 299.418 448.768 336.926" stroke="white" stroke-width="0.7" stroke-linecap="round" stroke-linejoin="round"/>
<path d="M400.408 397.015C424.387 383.968 443.275 363.019 452.92 338.682" stroke="white" stroke-width="0.7" stroke-linecap="round" stroke-linejoin="round"/>
<path fill-rule="evenodd" clip-rule="evenodd" d="M641.804 158.919C605.501 228.29 555.802 291.64 495.788 344.829C483.597 308.952 476.899 260.53 481.454 238.828C482.526 233.935 485.875 227.036 489.224 223.147C492.439 219.133 498.065 216.498 503.289 217.627C507.04 218.38 510.121 220.889 512.667 223.649C514.274 225.321 515.748 227.078 517.087 228.918C516.016 226.241 514.989 223.523 514.006 220.764C509.452 206.714 507.442 191.786 509.987 177.359C510.925 171.589 512.667 165.818 516.284 161.177C519.767 156.41 525.527 152.772 531.689 152.521C533.832 152.396 535.976 152.772 537.985 153.399C540.53 153.525 542.808 154.905 544.549 156.912C545.174 157.414 545.755 157.957 546.291 158.543C546.827 159.128 547.318 159.672 547.764 160.173C546.827 153.525 546.291 146.625 547.362 139.977C548.434 132.826 551.515 125.676 557.141 120.533C560.49 117.647 565.045 115.389 569.6 116.017C574.422 116.518 578.307 120.031 580.585 123.92C581.656 125.676 582.415 127.432 582.862 129.188C584.871 114.135 588.622 102.468 599.473 88.4185C602.956 83.9025 613.137 76.5012 619.031 75.3722C632.025 72.7378 639.259 83.5261 641.938 93.5618C647.967 115.264 640.867 139.726 624.256 155.908C628.274 153.399 634.035 152.019 637.518 154.277C638.991 155.281 640.465 156.912 641.804 158.919ZM527.938 250.87C527.938 250.87 527.893 250.87 527.804 250.87C527.893 251.038 527.983 251.247 528.072 251.498C527.983 251.33 527.938 251.121 527.938 250.87Z" fill="#D98784"/>
<path d="M506.37 353.987C503.021 355.743 499.137 353.861 497.797 350.474C497.172 348.634 496.502 346.753 495.788 344.829C555.802 291.64 605.501 228.29 641.804 158.919C643.814 162.055 645.153 166.195 644.885 171.087C643.814 188.273 634.571 204.581 624.657 219.133C614.744 233.559 601.08 245.351 586.747 256.014C593.981 252.501 603.09 259.15 604.162 266.677C605.367 274.329 602.018 282.232 597.597 288.63C581.522 311.586 525.393 343.7 506.37 353.987Z" fill="#C47A77"/>
<path d="M627.203 98.2032C596.124 187.52 547.496 270.565 499.136 352.858" stroke="#E8C79A" stroke-width="1.1" stroke-linecap="round" stroke-linejoin="round"/>
<path d="M629.212 172.216C617.289 190.28 599.473 204.707 578.843 213.111" stroke="#E8C79A" stroke-width="1.1" stroke-linecap="round" stroke-linejoin="round"/>
<path d="M574.556 137.593C575.226 155.532 579.78 173.22 587.952 189.528C588.354 190.28 588.488 191.409 587.684 191.66" stroke="#E8C79A" stroke-width="1.1" stroke-linecap="round" stroke-linejoin="round"/>
<path d="M557.945 249.741C547.094 227.412 540.932 203.201 539.994 178.614" stroke="#E8C79A" stroke-width="1.1" stroke-linecap="round" stroke-linejoin="round"/>
<path d="M589.158 271.82C579.647 280.977 570.135 290.135 559.285 297.787C548.3 305.439 535.976 311.586 522.579 313.844" stroke="#E8C79A" stroke-width="1.1" stroke-linecap="round" stroke-linejoin="round"/>
<path d="M527 305.439C515.078 282.985 506.772 258.774 502.485 233.935" stroke="#E8C79A" stroke-width="1.1" stroke-linecap="round" stroke-linejoin="round"/>
<path d="M560.49 164.188C559.017 162.557 558.749 160.173 559.151 158.041C559.419 156.41 560.356 154.528 562.232 153.901C566.251 152.647 569.6 157.414 568.93 160.675C568.126 164.439 563.839 167.951 560.49 164.188Z" fill="#E0A95D"/>
<path d="M593.579 134.332C592.775 133.453 592.507 132.074 592.775 130.819C593.043 129.816 593.579 128.687 594.65 128.31C597.062 127.558 598.937 130.443 598.535 132.324C598.133 134.582 595.588 136.59 593.579 134.332Z" fill="#E0A95D"/>
<path d="M605.501 106.984C603.626 107.486 601.482 106.734 599.875 105.605C598.669 104.601 597.463 103.096 597.731 101.59C598.133 98.0778 603.626 97.5761 606.037 99.3323C608.984 101.465 610.19 106.106 605.501 106.984Z" fill="#E0A95D"/>
<path d="M627.739 140.855C625.863 141.231 623.988 140.604 622.514 139.6C621.308 138.722 620.237 137.342 620.505 135.962C620.906 132.826 625.863 132.324 628.14 133.955C630.686 135.837 631.891 139.977 627.739 140.855Z" fill="#E0A95D"/>
<path d="M524.857 192.789C523.651 193.04 522.178 192.538 521.106 191.786C520.168 191.158 519.365 190.155 519.499 189.151C519.9 186.768 523.651 186.391 525.259 187.646C527.268 189.026 528.072 192.162 524.857 192.789Z" fill="#E0A95D"/>
<path d="M557.275 190.531C556.07 189.904 555.4 188.524 555.266 187.27C554.998 186.266 555.132 185.012 556.07 184.384C558.079 182.879 561.026 184.886 561.294 186.893C561.696 189.151 560.089 192.037 557.275 190.531Z" fill="#E0A95D"/>
<path d="M533.029 169.331C531.689 169.833 530.215 169.456 529.144 168.829C528.072 168.202 527.134 167.324 527.134 166.32C527.268 163.937 530.885 163.059 532.627 164.188C534.77 165.317 535.976 168.327 533.029 169.331Z" fill="#E0A95D"/>
<path d="M179.105 471.655C214.605 438.286 264.706 420.975 314.673 415.079C364.774 409.183 415.411 413.699 465.647 418.215" stroke="#3D4868" stroke-width="2.3"/>
<path d="M155.528 485.705C154.189 480.436 161.958 474.164 166.111 472.031C171.47 469.271 177.632 468.142 183.794 467.139C182.186 470.233 180.623 473.327 179.105 476.422C177.096 480.561 174.819 484.826 171.068 487.712C167.049 490.722 157.136 492.102 155.528 485.705Z" fill="#3B4A6A"/>
<path d="M198.932 457.981C201.209 453.716 203.084 453.716 206.969 457.228C211.926 461.87 215.543 467.891 217.15 474.289C218.222 478.93 218.088 484.576 214.069 487.461C210.05 490.346 203.888 488.966 200.271 485.704C195.85 481.816 194.109 475.669 194.779 469.898C195.315 465.759 196.788 461.744 198.932 457.981Z" fill="#3D4868"/>
<path d="M199.333 441.924C194.377 440.168 189.688 437.408 186.473 433.394C184.732 431.261 183.392 428.878 183.392 426.118C183.392 423.484 185.134 420.724 187.947 420.097C189.153 419.846 190.626 419.971 191.832 420.222C200.807 422.229 207.237 429.63 212.328 436.906C213.265 438.286 214.203 439.791 214.739 441.422C215.409 443.806 215.409 444.809 212.864 444.684C208.309 444.433 203.62 443.429 199.333 441.924Z" fill="#3D4868"/>
<path d="M363.435 399.273C362.095 394.38 361.827 389.237 363.435 384.47C364.105 381.961 365.578 379.452 367.855 377.947C370.133 376.316 373.616 376.065 375.759 377.821C376.697 378.574 377.367 379.703 377.902 380.958C381.385 388.861 378.84 398.018 375.491 406.172C374.821 407.677 374.018 409.308 372.946 410.563C371.204 412.444 370.401 413.072 368.927 411.064C366.516 407.552 364.64 403.287 363.435 399.273Z" fill="#3D4868"/>
<path d="M335.973 400.903C334.097 396.136 333.294 390.993 334.365 386.101C334.901 383.592 335.973 380.958 338.116 379.201C340.26 377.445 343.609 376.818 345.886 378.323C346.958 379.076 347.761 380.079 348.431 381.208C352.718 388.861 351.11 398.269 348.699 406.548C348.163 408.179 347.627 409.81 346.556 411.315C345.216 413.322 344.412 413.95 342.805 412.068C339.858 408.806 337.58 404.792 335.973 400.903Z" fill="#3D4868"/>
<path d="M329.543 426.118C331.552 430.759 332.49 435.903 331.552 440.795C331.151 443.429 330.079 446.064 327.936 447.82C325.926 449.702 322.577 450.329 320.166 448.824C319.094 448.196 318.29 447.193 317.621 446.064C313.066 438.537 314.406 429.129 316.817 420.724C317.219 419.093 317.755 417.462 318.692 415.957C320.032 413.95 320.836 413.197 322.577 415.079C325.39 418.34 327.802 422.229 329.543 426.118Z" fill="#3D4868"/>
<path d="M308.511 404.667C305.162 400.652 302.885 396.011 302.215 390.993C301.947 388.359 302.215 385.599 303.689 383.341C305.162 381.083 308.243 379.578 310.922 380.33C312.128 380.707 313.2 381.585 314.138 382.463C320.702 388.484 322.175 397.893 322.309 406.548C322.443 408.305 322.443 410.061 321.907 411.692C321.103 413.95 320.568 414.828 318.424 413.448C314.673 411.064 311.19 407.928 308.511 404.667Z" fill="#3D4868"/>
<path d="M257.606 420.222C252.516 418.466 247.961 415.58 244.612 411.692C242.87 409.559 241.531 407.05 241.531 404.416C241.665 401.781 243.406 399.022 246.085 398.394C247.425 398.018 248.765 398.269 250.104 398.52C259.08 400.527 265.51 407.803 270.466 415.079C271.404 416.459 272.476 417.964 272.878 419.595C273.547 421.978 273.681 422.982 271.002 422.856C266.447 422.731 261.759 421.727 257.606 420.222Z" fill="#3D4868"/>
<path d="M393.04 399.022C391.567 394.129 391.165 388.986 392.638 384.219C393.308 381.585 394.648 379.076 396.925 377.445C399.202 375.94 402.551 375.563 404.829 377.194C405.766 377.947 406.436 379.076 406.972 380.205C410.723 388.233 408.446 397.391 405.231 405.545C404.561 407.05 403.891 408.806 402.819 410.061C401.212 411.943 400.408 412.695 398.934 410.688C396.389 407.176 394.38 403.036 393.04 399.022Z" fill="#3D4868"/>
<path d="M274.887 422.982C276.628 421.1 277.298 421.853 278.638 423.985C279.576 425.365 280.111 427.121 280.513 428.752C282.791 437.157 284.13 446.566 279.442 453.967C278.772 455.096 277.968 456.099 276.762 456.852C274.485 458.232 271.136 457.479 268.993 455.723C266.983 453.967 265.912 451.332 265.51 448.698C264.706 443.68 265.644 438.662 267.787 434.021C269.395 430.132 271.94 426.243 274.887 422.982Z" fill="#3D4868"/>
<path d="M412.062 414.201C413.804 412.319 414.473 413.072 415.947 415.079C416.885 416.584 417.287 418.215 417.822 419.846C419.966 428.25 421.305 437.659 416.617 445.186C415.947 446.315 415.143 447.318 414.072 447.945C411.66 449.451 408.311 448.698 406.168 446.942C404.159 445.06 403.087 442.426 402.685 439.791C401.881 434.899 402.819 429.756 404.962 425.24C406.704 421.226 409.115 417.337 412.062 414.201Z" fill="#3D4868"/>
<path d="M256.802 442.175C258.678 446.942 259.482 452.085 258.41 456.977C257.874 459.486 256.802 462.121 254.659 463.877C252.516 465.633 249.167 466.135 246.755 464.63C245.684 464.002 244.88 462.873 244.344 461.744C239.923 454.092 241.665 444.809 244.21 436.404C244.746 434.899 245.282 433.143 246.22 431.763C247.693 429.756 248.497 429.003 250.104 431.01C252.918 434.272 255.195 438.286 256.802 442.175Z" fill="#3D4868"/>
<path d="M383.529 422.605C385.136 426.62 385.806 431.136 384.868 435.275C384.467 437.533 383.395 439.791 381.653 441.297C379.778 442.802 376.831 443.178 374.821 441.924C373.884 441.297 373.214 440.419 372.678 439.415C369.061 432.892 370.401 424.863 372.678 417.713C373.08 416.333 373.616 414.828 374.42 413.573C375.625 411.943 376.295 411.315 377.769 412.946C380.18 415.831 382.189 419.218 383.529 422.605Z" fill="#3D4868"/>
<path d="M218.088 446.816C220.365 440.042 228.001 447.444 230.68 450.58C232.957 453.214 235.101 456.099 236.307 459.236C237.512 462.497 237.512 466.135 235.637 469.02C234.833 470.4 233.493 471.655 231.886 472.156C229.207 473.16 226.126 472.282 223.982 470.526C221.839 468.895 220.499 466.511 219.427 464.128C217.15 458.608 216.346 452.587 218.088 446.816Z" fill="#3D4868"/>
<path d="M340.394 415.58C342.537 408.681 350.173 416.082 352.986 419.344C355.129 421.978 357.407 424.738 358.478 428C359.684 431.136 359.684 434.774 357.943 437.784C357.005 439.164 355.665 440.293 354.058 440.92C351.513 441.799 348.431 440.92 346.288 439.29C344.011 437.659 342.671 435.275 341.599 432.767C339.322 427.372 338.518 421.225 340.394 415.58Z" fill="#3D4868"/>
<path d="M244.612 427.121C247.693 433.77 236.708 432.767 232.422 432.014C228.939 431.387 225.322 430.508 222.241 428.878C219.16 427.121 216.48 424.362 215.945 420.975C215.543 419.469 215.811 417.713 216.614 416.333C217.954 413.95 220.901 412.821 223.714 412.695C226.527 412.695 229.207 413.699 231.752 414.828C237.244 417.588 242.067 421.727 244.612 427.121Z" fill="#3D4868"/>
<path d="M427.468 412.695C422.243 417.964 418.894 408.054 417.957 404.039C417.287 400.778 416.617 397.391 417.153 394.004C417.689 390.742 419.296 387.355 422.377 385.599C423.851 384.721 425.592 384.219 427.334 384.345C430.147 384.595 432.424 386.603 433.63 389.111C434.702 391.495 434.836 394.255 434.568 396.764C434.032 402.66 431.755 408.43 427.468 412.695Z" fill="#3D4868"/>
<path d="M433.496 417.588C437.917 411.692 442.606 421.1 444.079 424.989C445.285 428.125 446.357 431.387 446.357 434.774C446.357 438.161 445.017 441.673 442.338 443.931C440.998 444.935 439.391 445.687 437.649 445.687C434.836 445.687 432.157 444.057 430.817 441.799C429.344 439.541 428.808 436.781 428.674 434.146C428.406 428.376 429.745 422.355 433.496 417.588Z" fill="#3D4868"/>
<path d="M293.775 420.097C298.464 414.451 302.885 423.985 304.224 427.874C305.296 431.01 306.234 434.397 306.1 437.784C305.966 441.171 304.626 444.558 301.813 446.691C300.473 447.695 298.866 448.322 297.124 448.322C294.311 448.322 291.766 446.566 290.292 444.307C288.953 441.924 288.551 439.29 288.551 436.655C288.417 430.759 290.024 424.863 293.775 420.097Z" fill="#3D4868"/>
<path d="M169.192 453.967C167.049 452.712 164.906 450.956 164.638 448.573C164.504 445.813 167.049 443.429 169.996 442.928C172.809 442.3 175.756 443.053 178.57 443.931C184.732 446.064 190.626 448.949 196.118 452.461C196.922 452.963 197.726 453.465 198.128 454.343C200.137 458.106 187.679 457.856 185.402 457.73C179.775 457.73 174.149 456.727 169.192 453.967Z" fill="#3D4868"/>
<path d="M277.7 408.054C273.815 404.918 270.333 401.28 268.189 397.015C265.912 392.624 265.108 387.606 266.448 383.09C267.385 379.828 269.663 376.692 273.146 375.94C276.763 375.062 280.513 377.069 283.327 379.452C291.096 385.724 295.785 395.133 296.455 404.667C296.723 407.677 297.125 416.835 293.776 417.211C291.632 417.337 287.212 414.326 285.47 413.322C282.702 411.733 280.112 409.977 277.7 408.054Z" fill="#3D4868"/>
<path d="M293.105 116.142C307.841 119.278 316.415 124.923 329.007 133.704C335.973 138.597 346.824 147.127 352.718 153.148C366.114 166.947 379.108 185.513 388.485 200.692C383.261 169.833 355.799 144.242 355.531 113.131C355.397 110.873 355.665 108.49 356.603 106.483C358.746 102.218 364.506 100.336 369.597 101.214C374.553 102.092 378.706 105.103 382.323 108.364C395.451 120.533 402.015 137.844 404.694 155.03C407.24 172.216 406.436 189.653 406.972 207.09C407.106 210.979 409.249 216.498 413.402 215.495C420.502 198.936 423.047 180.746 420.636 163.059C419.43 154.403 417.019 145.245 420.1 136.84C423.047 128.436 434.434 122.038 442.069 127.181C446.49 130.192 447.964 135.586 448.499 140.604C452.384 172.843 434.568 204.957 439.122 237.197C442.203 237.197 443.677 233.81 444.347 231.05C447.472 219.091 450.598 207.174 453.724 195.298C456.537 184.635 459.618 173.471 467.79 165.568C470.067 163.31 473.014 161.302 476.497 161.177C481.588 160.926 485.874 165.442 486.812 170.084C487.884 174.85 486.41 179.743 484.669 184.259C478.239 201.947 473.416 212.86 469.397 231.176C465.245 249.491 469.129 274.454 479.176 287.751C482.391 291.766 488.152 297.662 491.099 301.801C494.046 306.067 489.893 311.586 486.41 311.837C454.394 304.31 432.558 306.568 405.9 310.457C391.7 312.59 376.563 315.851 363.167 310.959C358.478 309.203 353.789 306.192 352.584 301.55C350.708 294.651 357.272 288.128 364.238 285.243C374.821 280.852 387.012 281.228 398.666 281.73C412.955 282.316 427.289 282.901 441.667 283.486C419.162 273.2 393.576 269.06 368.659 271.694C350.44 273.702 329.945 278.719 314.941 268.809C311.19 266.3 308.109 262.913 307.171 258.774C305.698 251.999 310.654 245.225 317.084 241.964C323.648 238.828 331.284 238.451 338.518 238.577C364.104 238.828 389.691 243.344 413.536 251.999C400.14 240.584 382.457 234.437 364.774 231.05C346.957 227.538 328.739 226.534 310.922 223.9C301.009 222.394 290.962 220.136 283.058 214.491C275.155 208.721 270.198 198.434 273.681 189.779C276.896 182.001 285.872 177.485 294.713 176.858C303.554 176.23 312.262 178.865 320.433 181.875C340.259 189.026 359.014 198.434 376.429 209.85C350.173 177.861 298.866 169.08 277.432 134.206C270.466 122.916 282.255 113.884 293.105 116.142Z" fill="#3B496C"/>
<path d="M930.355 465.884C930.355 470.526 813.408 470.149 669.802 470.149C526.063 470.149 412.33 465.131 412.33 460.49C412.33 455.848 525.125 448.322 668.865 448.322C812.47 448.322 930.355 461.243 930.355 465.884Z" fill="#D6CA9F"/>
<path d="M672.347 449.953C672.347 449.953 612.467 442.551 506.103 448.698C488.688 449.702 442.605 457.856 422.243 461.619C417.287 462.497 412.732 458.859 412.866 454.092L423.449 203.577C423.583 198.936 427.2 195.047 432.156 194.295C448.634 191.66 487.08 186.266 524.187 186.266C560.758 186.266 686.011 214.491 686.011 214.491L672.347 449.953Z" fill="#3965B0"/>
<path d="M687.083 209.975C687.083 209.975 775.095 185.639 811.666 185.639C850.649 185.639 910.127 199.814 933.034 205.585C938.527 206.965 942.277 211.857 942.01 217.126L930.891 455.974C930.623 463.124 923.255 468.268 915.753 466.637C893.516 461.494 851.854 452.336 835.645 451.458C757.412 447.318 672.347 450.078 672.347 450.078L687.083 209.975Z" fill="#3965B0"/>
<path d="M489.893 179.868C655.468 168.453 682.26 226.158 682.26 226.158L672.347 449.953C672.347 449.953 595.99 428.25 525.527 426.369C472.612 424.989 433.362 442.551 433.362 442.551L440.328 192.664C440.328 192.664 461.226 181.75 489.893 179.868Z" fill="#DCD097"/>
<path d="M687.217 203.452L672.347 449.953C672.347 449.953 604.831 415.079 516.953 409.057C480.65 406.674 449.437 415.831 449.437 415.831L458.011 168.955C458.011 168.955 496.591 162.933 546.961 165.944C630.552 170.962 687.217 203.452 687.217 203.452Z" fill="white"/>
<path d="M930.891 213.864L917.629 453.34C917.629 453.34 883.469 440.92 836.851 437.032C766.655 431.136 672.347 449.953 672.347 449.953L688.824 227.538C688.824 227.538 714.813 175.979 878.78 199.814C907.314 203.828 930.891 213.864 930.891 213.864Z" fill="#DCD097"/>
<path d="M828.813 177.736C879.45 178.488 917.227 187.395 917.227 187.395L904.635 434.146C904.635 434.146 874.36 422.605 837.922 422.355C749.776 421.727 672.347 449.953 672.347 449.953L686.949 203.327C686.949 203.327 745.088 176.481 828.813 177.736Z" fill="#F7F5ED"/>
<path d="M705.837 280.852L695.656 240.082H706.239L713.607 269.687L720.841 240.082H731.424L738.792 269.687L746.159 240.082H756.608L746.561 280.852H733.835L726.199 249.867L718.564 280.852H705.837ZM776.435 256.516C774.113 256.516 772.371 257.31 771.21 258.899C770.049 260.404 769.469 262.621 769.469 265.548C769.469 268.475 770.049 270.733 771.21 272.322C772.371 273.911 774.113 274.705 776.435 274.705C778.667 274.705 780.364 273.911 781.525 272.322C782.686 270.733 783.267 268.475 783.267 265.548C783.267 262.621 782.686 260.404 781.525 258.899C780.364 257.31 778.667 256.516 776.435 256.516ZM776.435 249.491C781.882 249.491 786.169 250.912 789.295 253.756C792.331 256.599 793.849 260.53 793.849 265.548C793.849 270.565 792.331 274.496 789.295 277.339C786.169 280.183 781.882 281.605 776.435 281.605C770.898 281.605 766.566 280.183 763.44 277.339C760.315 274.496 758.752 270.565 758.752 265.548C758.752 260.53 760.315 256.599 763.44 253.756C766.566 250.912 770.898 249.491 776.435 249.491ZM825.062 249.741V258.648C824.169 258.23 823.276 257.937 822.383 257.77C821.49 257.519 820.597 257.394 819.704 257.394C817.114 257.394 815.104 258.23 813.676 259.903C812.247 261.492 811.532 263.791 811.532 266.802V280.852H801.351V250.243H811.532V255.261C812.872 253.254 814.39 251.832 816.087 250.996C817.784 249.992 819.793 249.491 822.115 249.491C822.472 249.491 822.874 249.532 823.321 249.616C823.678 249.616 824.258 249.658 825.062 249.741ZM830.153 280.852V238.326H840.334V280.852H830.153ZM871.948 254.759V238.326H882.263V280.852H871.948V276.461C870.519 278.218 868.957 279.514 867.26 280.35C865.563 281.186 863.598 281.605 861.365 281.605C857.436 281.605 854.221 280.141 851.72 277.214C849.22 274.203 847.969 270.315 847.969 265.548C847.969 260.864 849.22 257.017 851.72 254.007C854.221 250.996 857.436 249.491 861.365 249.491C863.598 249.491 865.563 249.951 867.26 250.87C868.957 251.707 870.519 253.003 871.948 254.759ZM865.25 274.58C867.394 274.58 869.046 273.785 870.207 272.196C871.368 270.691 871.948 268.475 871.948 265.548C871.948 262.704 871.368 260.488 870.207 258.899C869.046 257.394 867.394 256.641 865.25 256.641C863.018 256.641 861.321 257.394 860.16 258.899C859.088 260.488 858.552 262.704 858.552 265.548C858.552 268.475 859.088 270.691 860.16 272.196C861.321 273.785 863.018 274.58 865.25 274.58ZM748.705 340.815H744.82V365.779H748.705C753.17 365.779 756.608 364.691 759.02 362.517C761.342 360.426 762.503 357.332 762.503 353.234C762.503 349.22 761.342 346.167 759.02 344.077C756.608 341.902 753.17 340.815 748.705 340.815ZM733.835 373.682V332.912H745.356C751.786 332.912 756.608 333.372 759.823 334.292C762.949 335.128 765.673 336.592 767.995 338.682C769.96 340.522 771.433 342.655 772.416 345.08C773.398 347.505 773.889 350.223 773.889 353.234C773.889 356.328 773.398 359.088 772.416 361.513C771.433 363.939 769.96 366.071 767.995 367.911C765.673 370.002 762.905 371.507 759.69 372.427C756.564 373.264 751.786 373.682 745.356 373.682H733.835ZM801.485 359.883H796.261C794.117 359.883 792.51 360.259 791.438 361.012C790.366 361.681 789.831 362.684 789.831 364.022C789.831 365.277 790.232 366.239 791.036 366.908C791.929 367.66 793.135 368.037 794.653 368.037C796.618 368.037 798.27 367.368 799.61 366.029C800.86 364.691 801.485 363.019 801.485 361.012V359.883ZM811.8 356.245V373.682H801.485V369.166C800.146 371.005 798.627 372.344 796.931 373.18C795.234 374.016 793.135 374.434 790.634 374.434C787.33 374.434 784.651 373.514 782.597 371.675C780.543 369.835 779.516 367.451 779.516 364.524C779.516 360.928 780.811 358.294 783.401 356.621C785.99 354.948 790.009 354.112 795.457 354.112H801.485V353.359C801.485 351.771 800.86 350.642 799.61 349.972C798.359 349.22 796.35 348.843 793.582 348.843C791.438 348.843 789.429 349.053 787.553 349.471C785.678 349.889 783.936 350.516 782.329 351.352V343.951C784.472 343.449 786.66 343.073 788.893 342.822C791.126 342.488 793.314 342.32 795.457 342.32C801.262 342.32 805.415 343.407 807.915 345.582C810.505 347.756 811.8 351.311 811.8 356.245ZM829.617 374.811L815.283 343.073H825.598L834.171 363.897L841.405 343.073H851.586L838.19 376.567C836.851 379.996 835.288 382.379 833.502 383.717C831.716 385.055 829.349 385.724 826.402 385.724H820.508V379.327H823.723C825.419 379.327 826.67 379.076 827.473 378.574C828.277 377.989 828.858 377.027 829.215 375.689L829.617 374.811Z" fill="#3B496C"/>
<path d="M725.128 302.303H731.156C732.853 302.303 734.148 301.927 735.041 301.174C735.934 300.421 736.38 299.376 736.38 298.038C736.38 296.616 735.934 295.529 735.041 294.776C734.148 294.024 732.853 293.647 731.156 293.647H725.128V302.303ZM725.128 320.116H731.558C733.701 320.116 735.353 319.698 736.514 318.862C737.586 317.942 738.122 316.562 738.122 314.722C738.122 312.966 737.586 311.67 736.514 310.833C735.443 309.913 733.791 309.454 731.558 309.454H725.128V320.116ZM741.739 305.439C744.061 306.108 745.892 307.321 747.231 309.077C748.482 310.833 749.107 313.008 749.107 315.6C749.107 319.531 747.722 322.458 744.954 324.382C742.185 326.305 737.988 327.267 732.362 327.267H714.143V286.497H730.62C736.514 286.497 740.757 287.375 743.346 289.131C746.026 290.804 747.365 293.522 747.365 297.285C747.365 299.292 746.874 301.007 745.892 302.429C744.999 303.767 743.614 304.77 741.739 305.439ZM773.354 302.93C771.121 302.93 769.379 303.725 768.129 305.314C766.968 306.819 766.388 309.077 766.388 312.088C766.388 315.015 766.968 317.231 768.129 318.736C769.379 320.325 771.121 321.12 773.354 321.12C775.586 321.12 777.283 320.325 778.444 318.736C779.605 317.231 780.186 315.015 780.186 312.088C780.186 309.077 779.605 306.819 778.444 305.314C777.283 303.725 775.586 302.93 773.354 302.93ZM773.354 296.031C778.891 296.031 783.177 297.453 786.214 300.296C789.339 303.056 790.902 306.986 790.902 312.088C790.902 317.106 789.339 321.036 786.214 323.88C783.177 326.64 778.891 328.019 773.354 328.019C767.817 328.019 763.485 326.64 760.359 323.88C757.323 321.036 755.805 317.106 755.805 312.088C755.805 306.986 757.323 303.056 760.359 300.296C763.485 297.453 767.817 296.031 773.354 296.031ZM813.542 302.93C811.22 302.93 809.478 303.725 808.317 305.314C807.156 306.819 806.576 309.077 806.576 312.088C806.576 315.015 807.156 317.231 808.317 318.736C809.478 320.325 811.22 321.12 813.542 321.12C815.774 321.12 817.471 320.325 818.632 318.736C819.793 317.231 820.374 315.015 820.374 312.088C820.374 309.077 819.793 306.819 818.632 305.314C817.471 303.725 815.774 302.93 813.542 302.93ZM813.542 296.031C818.989 296.031 823.276 297.453 826.402 300.296C829.528 303.056 831.09 306.986 831.09 312.088C831.09 317.106 829.528 321.036 826.402 323.88C823.276 326.64 818.989 328.019 813.542 328.019C808.005 328.019 803.673 326.64 800.548 323.88C797.422 321.036 795.859 317.106 795.859 312.088C795.859 306.986 797.422 303.056 800.548 300.296C803.673 297.453 808.005 296.031 813.542 296.031ZM838.458 327.267V284.866H848.639V307.948L860.428 296.658H872.216L856.677 310.708L873.556 327.267H861.098L848.639 314.597V327.267H838.458Z" fill="#DB4F38"/>
<path d="M584.067 288.755C579.424 281.897 575.003 274.872 570.805 267.68C568.126 263.164 565.581 258.648 563.973 253.63C562.5 248.738 561.964 243.469 563.438 238.451C564.241 236.068 565.715 233.559 568.26 233.057C569.332 232.806 570.27 232.932 571.341 233.057C576.7 234.186 580.852 238.451 582.996 243.218C585.139 247.985 585.541 253.254 585.943 258.397C587.684 252.878 589.828 248.111 593.311 243.344C596.66 238.577 601.616 234.563 607.511 232.806C609.52 232.304 611.797 232.054 613.673 232.806C617.959 234.312 618.897 239.58 618.093 243.845C616.754 250.87 612.467 257.017 608.046 262.788C600.946 272.447 593.043 280.476 584.067 288.755Z" fill="#DB4F38"/>
<path d="M549.238 233.308C542.718 232.723 536.244 231.97 529.814 231.05C525.661 230.548 521.642 229.796 517.757 228.416C513.872 227.036 510.255 224.903 507.844 221.893C506.638 220.387 505.701 218.38 506.504 216.624C506.772 215.997 507.308 215.495 507.844 214.993C511.059 212.484 515.748 212.108 519.767 213.111C523.785 214.115 527.268 216.247 530.751 218.38C528.072 214.868 525.929 211.481 524.455 207.341C522.982 203.327 522.714 198.685 524.321 194.671C524.857 193.291 525.661 191.911 527 191.158C529.948 189.528 533.832 191.409 536.11 193.793C539.995 197.682 541.87 202.95 543.612 207.968C546.559 216.373 548.032 224.527 549.238 233.308Z" fill="#DB4F38"/>
<path d="M657.478 188.9C660.291 190.406 660.157 191.535 659.889 194.169L647.431 391.746L637.25 377.194L623.72 388.735L636.58 186.642C636.714 183.883 635.374 182.001 632.293 181.123L657.478 188.9Z" fill="#60A9A7"/>
<path d="M1170.95 82.648C1175.37 87.5404 1177.38 93.9381 1178.45 100.21C1182.6 124.045 1173.36 147.88 1163.18 169.958C1155.94 185.513 1146.84 202.072 1130.22 208.595C1142.41 186.768 1145.76 160.801 1139.74 136.84C1136.92 125.55 1131.97 114.511 1132.1 102.97C1132.37 84.906 1154.47 64.0821 1170.95 82.648Z" fill="white"/>
<path d="M1247.57 86.9131C1256.68 78.6337 1268.2 71.7342 1280.8 72.236C1287.36 72.4869 1294.46 75.2467 1297.14 80.8918C1299.01 84.906 1298.21 89.7984 1295.93 93.6872C1293.66 97.576 1290.04 100.712 1286.29 103.472C1283.88 105.103 1281.33 106.734 1278.52 107.863C1272.09 110.622 1264.85 110.873 1257.89 111.626C1249.85 112.629 1241.81 114.386 1234.85 118.275C1228.95 121.411 1224.67 125.927 1220.92 130.819C1221.05 115.389 1236.32 97.0742 1247.57 86.9131Z" fill="white"/>
<path d="M1290.71 158.668C1287.76 149.636 1300.76 139.851 1309.73 142.611C1312.01 143.364 1314.02 144.869 1315.76 146.5C1317.37 148.131 1318.97 150.012 1319.91 152.145C1322.32 157.414 1320.31 164.313 1315.36 167.7C1306.78 173.596 1293.66 167.575 1290.71 158.668Z" fill="white"/>
<path d="M1193.86 159.17C1192.52 155.156 1198.41 150.765 1202.43 152.019C1203.5 152.396 1204.3 153.023 1205.11 153.776C1205.91 154.528 1206.58 155.281 1206.98 156.285C1208.05 158.668 1207.25 161.679 1204.97 163.309C1201.09 165.944 1195.19 163.184 1193.86 159.17Z" fill="white"/>
<path d="M65.5066 135.084C71.1329 130.317 78.6347 127.683 86.1365 126.178C114.402 120.532 143.472 128.812 170.532 138.22C189.554 144.869 209.916 153.525 218.757 170.585C191.831 159.17 160.618 157.037 132.219 164.815C118.823 168.453 105.963 174.223 92.0307 174.725C70.4631 175.603 44.2069 153.525 65.5066 135.084Z" fill="white"/>
<path d="M185.535 104.977C179.775 94.4399 176.292 82.0208 180.311 70.8561C182.454 65.0856 187.411 59.566 193.975 58.8133C198.663 58.3116 203.352 60.4441 206.701 63.7057C210.05 66.8418 212.193 70.9816 213.801 75.2467C214.872 77.8811 215.676 80.6409 216.078 83.4007C217.016 89.9238 215.14 96.447 213.801 102.97C212.461 110.497 212.059 118.149 213.801 125.55C215.274 131.697 218.623 136.84 222.508 141.733C206.835 137.091 192.635 118.024 185.535 104.977Z" fill="white"/>
<path d="M399.336 75.9993C396.389 66.9672 409.517 57.1825 418.358 59.9423C420.77 60.695 422.645 62.2003 424.387 63.8311C426.128 65.4619 427.736 67.3436 428.673 69.4762C431.085 74.7449 429.075 81.6444 424.119 85.0314C415.545 90.9273 402.283 84.906 399.336 75.9993Z" fill="white"/>
<path d="M48.0917 347.338C45.1446 338.306 58.1388 328.521 67.1141 331.281C69.3914 332.034 71.4008 333.539 73.1423 335.17C74.7498 336.801 76.3574 338.682 77.2951 340.815C79.7064 346.084 77.697 352.983 72.7404 356.37C64.167 362.266 51.0389 356.245 48.0917 347.338Z" fill="white"/>
<path d="M126.593 96.3215C125.253 92.3073 131.147 87.9167 135.166 89.1711C136.104 89.422 137.042 90.1747 137.845 90.8019C138.515 91.5546 139.319 92.4327 139.721 93.3108C140.792 95.8197 139.855 98.8304 137.577 100.336C133.827 102.97 127.932 100.336 126.593 96.3215Z" fill="white"/>
<path d="M106.767 454.97C105.427 450.956 111.321 446.565 115.34 447.82C116.278 448.196 117.215 448.824 118.019 449.576C118.689 450.329 119.493 451.082 119.895 452.085C120.966 454.469 120.029 457.479 117.885 459.11C114 461.744 108.106 458.985 106.767 454.97Z" fill="white"/>
<path d="M153.117 147.754C158.877 153.65 161.824 163.059 156.868 169.582C153.117 174.725 145.749 176.481 139.185 175.854C131.415 175.101 123.78 170.962 120.163 164.438C108.106 142.987 139.185 133.579 153.117 147.754Z" stroke="#3B496C" stroke-width="1.9" stroke-linecap="round" stroke-linejoin="round"/>
<path d="M1147.24 133.83C1153.13 139.726 1155.94 149.26 1150.99 155.783C1147.24 160.801 1140 162.682 1133.44 162.055C1125.54 161.302 1117.9 157.163 1114.28 150.639C1102.23 129.063 1133.31 119.78 1147.24 133.83Z" stroke="#3B496C" stroke-width="1.9" stroke-linecap="round" stroke-linejoin="round"/>
<path d="M277.7 75.2467C279.174 74.9958 280.781 75.1212 282.121 75.4976C285.604 76.5011 288.685 78.8846 290.158 82.0207C291.632 85.1569 291.498 88.9202 289.489 91.9309C288.819 92.9345 287.881 93.8126 286.676 94.4399C284.934 95.4434 282.657 95.4434 280.513 95.318C276.628 95.0671 272.208 93.9381 270.466 90.6765C267.653 85.6587 271.672 76.6266 277.7 75.2467Z" stroke="#3B496C" stroke-width="1.9" stroke-linecap="round" stroke-linejoin="round"/>
<path d="M1300.76 363.27C1302.1 362.893 1303.7 363.019 1305.04 363.521C1308.53 364.399 1311.61 366.908 1313.08 369.918C1314.55 373.054 1314.42 376.943 1312.41 379.828C1311.74 380.832 1310.8 381.836 1309.73 382.463C1307.86 383.341 1305.58 383.466 1303.43 383.341C1299.55 383.09 1295.13 381.836 1293.39 378.574C1290.57 373.556 1294.59 364.65 1300.76 363.27Z" stroke="#3B496C" stroke-width="1.9" stroke-linecap="round" stroke-linejoin="round"/>
<path d="M51.7089 419.344C53.0485 418.967 54.656 419.218 55.9956 419.595C59.4786 420.598 62.5597 422.982 64.0332 426.118C65.5068 429.254 65.3728 433.017 63.3634 435.903C62.6936 437.032 61.7559 437.91 60.6842 438.537C58.8088 439.541 56.5314 439.541 54.3881 439.415C50.5032 439.164 46.0825 438.035 44.341 434.774C41.6618 429.63 45.5467 420.724 51.7089 419.344Z" stroke="#3B496C" stroke-width="1.9" stroke-linecap="round" stroke-linejoin="round"/>
</svg>
