<svg width="37" height="33" viewBox="0 0 37 33" fill="none" xmlns="http://www.w3.org/2000/svg">
<path d="M14 31C14.8284 31 15.5 30.3817 15.5 29.6191C15.5 28.8564 14.8284 28.2381 14 28.2381C13.1716 28.2381 12.5 28.8564 12.5 29.6191C12.5 30.3817 13.1716 31 14 31Z" stroke="black" stroke-width="4" stroke-linecap="round" stroke-linejoin="round"/>
<path d="M30.5 31C31.3284 31 32 30.3817 32 29.6191C32 28.8564 31.3284 28.2381 30.5 28.2381C29.6716 28.2381 29 28.8564 29 29.6191C29 30.3817 29.6716 31 30.5 31Z" stroke="black" stroke-width="4" stroke-linecap="round" stroke-linejoin="round"/>
<path d="M2 2H8L12.02 20.491C12.1572 21.1267 12.5329 21.6979 13.0813 22.1043C13.6298 22.5108 14.316 22.7267 15.02 22.7143H29.6C30.304 22.7267 30.9902 22.5108 31.5387 22.1043C32.0871 21.6979 32.4628 21.1267 32.6 20.491L35 8.90476H9.5" stroke="black" stroke-width="4" stroke-linecap="round" stroke-linejoin="round"/>
</svg>
